PathFileType	4	(X/Y/Z)	C:/Users/opensim2020/Desktop/walking_exp_matlab/subject06_walking18_straight_03_cyclic.trc	
DataRate	CameraRate	NumFrames	NumMarkers	Units	OrigDataRate	OrigDataStartFrame	OrigNumFrames	
100.00	100.00	4	47	mm	100.00	3472	148	
Frame#	Time	LFHD			RFHD			LBHD			RBHD			C7			T10			CLAV			STRN			RBAK			LSHO			LUPA			LELB			LFRM			LWRA			LWRB			LFIN			RSHO			RUPA			RELB			RFRM			RWRA			RWRB			RFIN			LASI			RASI			LPSI			RPSI			LTHI			LKNE			LTIB			LANK			LHEE			LTOE			RTHI			RKNE			RTIB			RANK			RHEE			RTOE			*39			*40			*41			*42			*43			*44			*45			*46			
		X1	Y1	Z1	X2	Y2	Z2	X3	Y3	Z3	X4	Y4	Z4	X5	Y5	Z5	X6	Y6	Z6	X7	Y7	Z7	X8	Y8	Z8	X9	Y9	Z9	X10	Y10	Z10	X11	Y11	Z11	X12	Y12	Z12	X13	Y13	Z13	X14	Y14	Z14	X15	Y15	Z15	X16	Y16	Z16	X17	Y17	Z17	X18	Y18	Z18	X19	Y19	Z19	X20	Y20	Z20	X21	Y21	Z21	X22	Y22	Z22	X23	Y23	Z23	X24	Y24	Z24	X25	Y25	Z25	X26	Y26	Z26	X27	Y27	Z27	X28	Y28	Z28	X29	Y29	Z29	X30	Y30	Z30	X31	Y31	Z31	X32	Y32	Z32	X33	Y33	Z33	X34	Y34	Z34	X35	Y35	Z35	X36	Y36	Z36	X37	Y37	Z37	X38	Y38	Z38	X39	Y39	Z39	X40	Y40	Z40	X41	Y41	Z41	X42	Y42	Z42	X43	Y43	Z43	X44	Y44	Z44	X45	Y45	Z45	X46	Y46	Z46	X47	Y47	Z47	

112	1.110	1332.83740	254.54556	1669.87231	1464.01379	248.76390	1658.07117	1326.73035	120.41821	1618.26282	1456.01099	116.38049	1611.78271	1381.58411	113.97401	1459.92175	1393.88501	69.10245	1133.11853	1390.53748	221.18231	1380.41199	1388.85132	256.36526	1204.15308	1458.70544	31.85535	1293.04077	1225.26001	179.50999	1411.38953	1152.35474	199.11191	1209.67188	1139.61377	214.24892	1097.53491	1134.24097	289.84601	966.54523	1194.68762	381.96066	888.26996	1152.56812	334.23401	856.96606	1164.14319	403.34647	799.98346	1547.56238	167.36038	1414.93701	1634.08875	118.15581	1218.60730	1645.74756	121.86892	1096.41016	1663.46106	133.57526	976.74280	1635.01904	190.92459	836.15613	1672.36804	136.21742	838.72003	1676.13550	171.87079	762.16333	1300.54382	244.44031	965.15100	1521.77820	233.10245	975.88019	1320.81396	85.66797	1000.49353	1488.53076	83.45641	1001.84460	1247.54236	148.65057	654.52747	1270.60742	126.66746	491.84860	1288.62756	70.64308	240.31775	1341.65564	63.15427	68.32331	1387.25745	23.26788	55.71154	1349.58923	209.73744	39.87553	1589.34021	239.02422	649.60248	1565.67273	286.75735	532.13959	1567.96729	259.84064	272.49329	1530.56799	251.98804	85.25797	1485.27808	214.58058	56.91606	1532.22754	402.36459	58.38718	1388.11694	152.70338	1710.02112																					 
113	1.120	1333.62219	260.69769	1669.48010	1464.82800	254.70813	1657.45703	1327.21680	126.51384	1617.99707	1456.50781	122.30426	1611.29443	1381.91345	120.00731	1459.43140	1394.12817	74.89439	1132.65137	1390.97546	227.05292	1379.98999	1389.01001	262.16794	1203.72424	1458.95532	37.65331	1292.58557	1225.71082	185.58022	1411.14331	1152.72437	205.52640	1209.59009	1140.15552	220.63135	1097.49231	1135.41931	297.58167	967.12482	1196.33179	390.61987	890.21619	1154.40051	343.43579	858.27307	1166.52246	413.21930	802.14063	1547.90845	173.15807	1414.38867	1634.11145	123.48992	1218.05371	1645.57605	126.83244	1095.79797	1663.26355	138.13666	976.10364	1634.80591	195.12946	835.24182	1672.02124	140.31100	838.05133	1676.09521	176.07379	761.42010	1300.18347	249.90959	964.65393	1521.50281	239.38251	975.37659	1320.92761	91.34210	999.99933	1488.64844	89.63647	1001.36255	1247.64075	153.02034	654.19220	1270.66321	130.49022	491.50894	1288.71179	72.41656	240.40283	1341.89478	63.48709	68.48911	1387.47876	23.49574	56.02374	1349.64087	209.82005	39.83818	1589.49072	244.64461	649.12286	1565.60803	292.55484	531.77905	1567.75952	272.95303	271.53973	1530.46167	271.95697	84.13293	1484.94641	235.44739	55.54734	1533.14636	423.04388	59.50928	1388.80896	158.83131	1709.58850																					 
114	1.130	1334.15271	266.83920	1669.11633	1465.74805	260.81708	1656.83289	1327.75269	132.66608	1617.60840	1457.00916	128.20557	1610.73987	1382.30334	126.05097	1458.96167	1394.49402	80.81457	1132.17273	1391.38135	232.95689	1379.43005	1389.20020	268.08170	1203.20093	1459.24792	43.53513	1292.05322	1226.17651	191.53806	1410.86060	1153.08789	211.88641	1209.40222	1140.57190	227.42386	1097.22485	1136.53088	305.41327	967.69916	1198.02991	399.27115	892.17389	1156.14709	352.63181	859.53424	1168.97180	422.84494	804.14832	1548.32446	179.05168	1413.78320	1634.23669	128.86992	1217.45557	1645.54883	131.94760	1095.17834	1663.12805	142.79137	975.39996	1634.55237	199.28821	834.20050	1671.70068	144.44812	837.31274	1675.37183	179.39510	760.38818	1299.84326	255.47946	964.15320	1521.20813	245.78922	974.77795	1321.10742	97.05888	999.44751	1488.87183	95.53098	1000.88818	1247.81323	157.50192	653.80695	1270.84436	133.96257	491.26617	1288.83569	74.19956	240.47104	1342.10364	63.85228	68.64214	1387.68616	23.72178	56.24496	1349.64673	209.95486	39.77677	1589.62988	250.32733	648.49152	1565.27136	298.24817	531.25061	1567.49719	285.60574	270.67847	1530.37781	291.38025	83.34392	1484.49316	256.08667	54.34063	1534.09192	443.39365	60.93246	1389.54126	164.88179	1709.10706																					 
115	1.140	1335.28223	272.94394	1668.50916	1466.46667	266.54883	1656.13501	1328.28650	138.83839	1617.09949	1457.53784	134.11295	1610.09290	1382.85815	131.97446	1458.47583	1394.92981	86.69643	1131.60364	1391.80200	238.92097	1378.86951	1389.40686	274.01981	1202.64160	1459.61340	49.53099	1291.40869	1226.68372	197.66057	1410.47534	1153.54749	218.20810	1209.09119	1141.22375	233.80272	1096.96301	1137.52661	313.48358	968.02966	1199.82031	407.76563	894.11011	1157.98230	361.74234	860.71204	1171.46509	432.52634	806.16272	1548.81226	185.04671	1413.09460	1634.47485	134.39374	1216.76282	1645.60022	137.10327	1094.44556	1662.96399	147.60190	974.56927	1634.31555	203.56912	833.11743	1671.48218	148.67439	836.47754	1675.06165	183.28131	759.36377	1299.51135	261.18634	963.60034	1520.93591	252.32439	974.14832	1321.28650	102.88178	998.83527	1489.02112	102.23592	1000.19318	1248.02991	162.14362	653.38153	1271.15967	137.69243	490.95526	1289.03345	75.85749	240.54704	1342.37048	64.25220	68.86815	1387.86133	23.73627	56.60114	1349.68115	210.06372	39.68826	1589.86841	256.02432	647.69836	1565.18506	303.68759	530.58716	1567.56421	298.09445	269.79962	1530.42285	310.30588	82.82652	1484.07007	276.23065	53.47979	1535.20129	463.16068	62.80132	1390.26501	170.94724	1708.55017																					 
